<mxfile host="app.diagrams.net" modified="2023-07-13T22:52:56.391Z" agent="Mozilla/5.0 (Windows NT 10.0; Win64; x64) AppleWebKit/537.36 (KHTML, like Gecko) Chrome/114.0.0.0 Safari/537.36" etag="1EqTyQlg9trRTDAz8OBS" version="21.6.2" type="device">
  <diagram name="Page-1" id="HbUFPzHRWxl-eESFbfk5">
    <mxGraphModel dx="1034" dy="451" grid="1" gridSize="10" guides="1" tooltips="1" connect="1" arrows="1" fold="1" page="1" pageScale="1" pageWidth="850" pageHeight="1100" math="0" shadow="0">
      <root>
        <mxCell id="0" />
        <mxCell id="1" parent="0" />
        <mxCell id="l2GxKSGlaRxRyGF30L9L-1" value="Paticipants" style="ellipse;whiteSpace=wrap;html=1;" parent="1" vertex="1">
          <mxGeometry x="510" y="30" width="120" height="80" as="geometry" />
        </mxCell>
        <mxCell id="l2GxKSGlaRxRyGF30L9L-3" value="Has token" style="rounded=1;whiteSpace=wrap;html=1;" parent="1" vertex="1">
          <mxGeometry x="220" y="50" width="120" height="60" as="geometry" />
        </mxCell>
        <mxCell id="l2GxKSGlaRxRyGF30L9L-4" value="Answer Questionaire" style="strokeWidth=2;html=1;shape=mxgraph.flowchart.start_1;whiteSpace=wrap;" parent="1" vertex="1">
          <mxGeometry x="520" y="179" width="120" height="90" as="geometry" />
        </mxCell>
        <mxCell id="l2GxKSGlaRxRyGF30L9L-8" value="" style="verticalLabelPosition=bottom;verticalAlign=top;html=1;strokeWidth=2;shape=mxgraph.arrows2.arrow;dy=0.7;dx=49.33;notch=0;" parent="1" vertex="1">
          <mxGeometry x="342" y="53" width="170" height="45" as="geometry" />
        </mxCell>
        <mxCell id="l2GxKSGlaRxRyGF30L9L-9" value="Yes" style="strokeWidth=2;html=1;shape=mxgraph.flowchart.start_1;whiteSpace=wrap;" parent="1" vertex="1">
          <mxGeometry x="400" y="20" width="50" height="40" as="geometry" />
        </mxCell>
        <mxCell id="l2GxKSGlaRxRyGF30L9L-10" value="End" style="strokeWidth=2;html=1;shape=mxgraph.flowchart.start_1;whiteSpace=wrap;" parent="1" vertex="1">
          <mxGeometry x="20" y="215" width="60" height="55" as="geometry" />
        </mxCell>
        <mxCell id="l2GxKSGlaRxRyGF30L9L-11" value="No" style="strokeWidth=2;html=1;shape=mxgraph.flowchart.start_1;whiteSpace=wrap;" parent="1" vertex="1">
          <mxGeometry x="214" y="120" width="50" height="40" as="geometry" />
        </mxCell>
        <mxCell id="l2GxKSGlaRxRyGF30L9L-12" value="Call API service to store answers into Database" style="strokeWidth=2;html=1;shape=mxgraph.flowchart.start_1;whiteSpace=wrap;" parent="1" vertex="1">
          <mxGeometry x="510" y="335" width="140" height="80" as="geometry" />
        </mxCell>
        <mxCell id="l2GxKSGlaRxRyGF30L9L-14" value="" style="shape=flexArrow;endArrow=classic;html=1;rounded=0;" parent="1" edge="1">
          <mxGeometry width="50" height="50" relative="1" as="geometry">
            <mxPoint x="579.5" y="267" as="sourcePoint" />
            <mxPoint x="580" y="337" as="targetPoint" />
            <Array as="points">
              <mxPoint x="580" y="337" />
            </Array>
          </mxGeometry>
        </mxCell>
        <mxCell id="l2GxKSGlaRxRyGF30L9L-15" value="UserName/pwd&lt;br&gt;login as administrator" style="strokeWidth=2;html=1;shape=mxgraph.flowchart.start_1;whiteSpace=wrap;" parent="1" vertex="1">
          <mxGeometry x="200" y="200" width="130" height="90" as="geometry" />
        </mxCell>
        <mxCell id="l2GxKSGlaRxRyGF30L9L-16" value="Login" style="strokeWidth=2;html=1;shape=mxgraph.flowchart.start_1;whiteSpace=wrap;" parent="1" vertex="1">
          <mxGeometry x="20" y="40" width="80" height="70" as="geometry" />
        </mxCell>
        <mxCell id="l2GxKSGlaRxRyGF30L9L-17" value="" style="shape=flexArrow;endArrow=classic;html=1;rounded=0;" parent="1" edge="1">
          <mxGeometry width="50" height="50" relative="1" as="geometry">
            <mxPoint x="100" y="79.5" as="sourcePoint" />
            <mxPoint x="220" y="79.5" as="targetPoint" />
          </mxGeometry>
        </mxCell>
        <mxCell id="l2GxKSGlaRxRyGF30L9L-20" value="" style="shape=flexArrow;endArrow=classic;html=1;rounded=0;" parent="1" edge="1">
          <mxGeometry width="50" height="50" relative="1" as="geometry">
            <mxPoint x="579.5" y="110" as="sourcePoint" />
            <mxPoint x="580" y="180" as="targetPoint" />
            <Array as="points">
              <mxPoint x="580" y="180" />
            </Array>
          </mxGeometry>
        </mxCell>
        <mxCell id="l2GxKSGlaRxRyGF30L9L-21" value="" style="shape=flexArrow;endArrow=classic;html=1;rounded=0;exitX=0.5;exitY=1;exitDx=0;exitDy=0;" parent="1" edge="1">
          <mxGeometry width="50" height="50" relative="1" as="geometry">
            <mxPoint x="271" y="110" as="sourcePoint" />
            <mxPoint x="271" y="200" as="targetPoint" />
          </mxGeometry>
        </mxCell>
        <mxCell id="l2GxKSGlaRxRyGF30L9L-22" value="" style="endArrow=none;html=1;rounded=0;" parent="1" edge="1">
          <mxGeometry width="50" height="50" relative="1" as="geometry">
            <mxPoint x="100" y="348" as="sourcePoint" />
            <mxPoint x="360" y="348" as="targetPoint" />
          </mxGeometry>
        </mxCell>
        <mxCell id="l2GxKSGlaRxRyGF30L9L-23" value="" style="shape=flexArrow;endArrow=classic;html=1;rounded=0;" parent="1" edge="1">
          <mxGeometry width="50" height="50" relative="1" as="geometry">
            <mxPoint x="264.5" y="289" as="sourcePoint" />
            <mxPoint x="264.5" y="349" as="targetPoint" />
          </mxGeometry>
        </mxCell>
        <mxCell id="l2GxKSGlaRxRyGF30L9L-24" value="" style="shape=flexArrow;endArrow=classic;html=1;rounded=0;" parent="1" edge="1">
          <mxGeometry width="50" height="50" relative="1" as="geometry">
            <mxPoint x="264.5" y="348" as="sourcePoint" />
            <mxPoint x="264.5" y="408" as="targetPoint" />
          </mxGeometry>
        </mxCell>
        <mxCell id="l2GxKSGlaRxRyGF30L9L-25" value="" style="shape=flexArrow;endArrow=classic;html=1;rounded=0;" parent="1" edge="1">
          <mxGeometry width="50" height="50" relative="1" as="geometry">
            <mxPoint x="362" y="347" as="sourcePoint" />
            <mxPoint x="362" y="407" as="targetPoint" />
          </mxGeometry>
        </mxCell>
        <mxCell id="l2GxKSGlaRxRyGF30L9L-26" value="Maintain profile" style="ellipse;whiteSpace=wrap;html=1;" parent="1" vertex="1">
          <mxGeometry x="232" y="408" width="70" height="70" as="geometry" />
        </mxCell>
        <mxCell id="l2GxKSGlaRxRyGF30L9L-27" value="Maintain questions" style="ellipse;whiteSpace=wrap;html=1;" parent="1" vertex="1">
          <mxGeometry x="321" y="408" width="87" height="70" as="geometry" />
        </mxCell>
        <mxCell id="l2GxKSGlaRxRyGF30L9L-28" value="Yes" style="strokeWidth=2;html=1;shape=mxgraph.flowchart.start_1;whiteSpace=wrap;" parent="1" vertex="1">
          <mxGeometry x="281" y="290" width="50" height="40" as="geometry" />
        </mxCell>
        <mxCell id="l2GxKSGlaRxRyGF30L9L-29" value="No" style="strokeWidth=2;html=1;shape=mxgraph.flowchart.start_1;whiteSpace=wrap;" parent="1" vertex="1">
          <mxGeometry x="135" y="200" width="50" height="40" as="geometry" />
        </mxCell>
        <mxCell id="l2GxKSGlaRxRyGF30L9L-30" value="" style="html=1;shadow=0;dashed=0;align=center;verticalAlign=middle;shape=mxgraph.arrows2.arrow;dy=0.6;dx=40;flipH=1;notch=0;" parent="1" vertex="1">
          <mxGeometry x="80" y="230" width="120" height="30" as="geometry" />
        </mxCell>
        <mxCell id="F4y55MRj25B69qbfCT7H-1" value="" style="shape=flexArrow;endArrow=classic;html=1;rounded=0;" edge="1" parent="1">
          <mxGeometry width="50" height="50" relative="1" as="geometry">
            <mxPoint x="191" y="348" as="sourcePoint" />
            <mxPoint x="191" y="408" as="targetPoint" />
          </mxGeometry>
        </mxCell>
        <mxCell id="F4y55MRj25B69qbfCT7H-2" value="" style="shape=flexArrow;endArrow=classic;html=1;rounded=0;" edge="1" parent="1">
          <mxGeometry width="50" height="50" relative="1" as="geometry">
            <mxPoint x="100" y="348" as="sourcePoint" />
            <mxPoint x="100" y="408" as="targetPoint" />
          </mxGeometry>
        </mxCell>
        <mxCell id="F4y55MRj25B69qbfCT7H-4" value="View analysis/report" style="ellipse;whiteSpace=wrap;html=1;" vertex="1" parent="1">
          <mxGeometry x="150" y="408" width="80" height="70" as="geometry" />
        </mxCell>
        <mxCell id="F4y55MRj25B69qbfCT7H-5" value="print or save report" style="ellipse;whiteSpace=wrap;html=1;" vertex="1" parent="1">
          <mxGeometry x="65" y="408" width="70" height="70" as="geometry" />
        </mxCell>
      </root>
    </mxGraphModel>
  </diagram>
</mxfile>
